<svg xmlns="http://www.w3.org/2000/svg" width="60" height="60" viewBox="0 0 60 60"><g transform="translate(-348 -1793)"><path d="M30,1A29.008,29.008,0,0,0,18.712,56.721,29.008,29.008,0,0,0,41.288,3.279,28.818,28.818,0,0,0,30,1m0-1A30,30,0,1,1,0,30,30,30,0,0,1,30,0Z" transform="translate(348 1793)" fill="#0b4628"/><g transform="translate(360.5 1805.5)"><path d="M28.5,19.5H7.5a1.5,1.5,0,0,1,0-3h21a1.5,1.5,0,0,1,0,3Z" fill="#0b4628"/><path d="M18,30a1.5,1.5,0,0,1-1.061-.439l-10.5-10.5a1.5,1.5,0,0,1,0-2.121l10.5-10.5a1.5,1.5,0,0,1,2.121,2.121L9.621,18l9.439,9.439A1.5,1.5,0,0,1,18,30Z" fill="#0b4628"/></g></g></svg>