<svg xmlns="http://www.w3.org/2000/svg" width="21.809" height="21.808" viewBox="0 0 21.809 21.808">
  <path id="Icon_awesome-facebook-messenger" data-name="Icon awesome-facebook-messenger" d="M11.491.563C5.334.563.563,5.062.563,11.14A10.338,10.338,0,0,0,4,18.964c.367.33.292.521.354,2.56a.876.876,0,0,0,1.226.773c2.326-1.024,2.356-1.105,2.751-1,6.74,1.855,14.045-2.458,14.045-10.159A10.5,10.5,0,0,0,11.491.563ZM18.053,8.7l-3.21,5.081a1.643,1.643,0,0,1-2.37.437L9.919,12.309a.66.66,0,0,0-.791,0L5.682,14.923a.518.518,0,0,1-.752-.689l3.21-5.081a1.643,1.643,0,0,1,2.37-.437l2.553,1.911a.66.66,0,0,0,.791,0L17.3,8.016a.517.517,0,0,1,.751.687Z" transform="translate(-0.563 -0.563)" fill="#fff"/>
</svg>
