<svg xmlns="http://www.w3.org/2000/svg" width="60" height="60" viewBox="0 0 60 60"><path d="M30,1A29.008,29.008,0,0,0,18.712,56.721,29.008,29.008,0,0,0,41.288,3.279,28.818,28.818,0,0,0,30,1m0-1A30,30,0,1,1,0,30,30,30,0,0,1,30,0Z" fill="#0b4628"/><g transform="translate(19 20)"><path d="M28.5,19.5H7.5a1.5,1.5,0,0,1,0-3h21a1.5,1.5,0,0,1,0,3Z" transform="translate(-7.5 -7.5)" fill="#0b4628"/><path d="M7.5,30a1.5,1.5,0,0,1-1.061-2.561L15.879,18,6.439,8.561A1.5,1.5,0,0,1,8.561,6.439l10.5,10.5a1.5,1.5,0,0,1,0,2.121l-10.5,10.5A1.5,1.5,0,0,1,7.5,30Z" transform="translate(3 -7.5)" fill="#0b4628"/></g></svg>