<svg xmlns="http://www.w3.org/2000/svg" width="225.273" height="160.879" viewBox="0 0 225.273 160.879"><path d="M0,158.379a2.489,2.489,0,0,1-1.152-.283,2.5,2.5,0,0,1-1.063-3.371,238.5,238.5,0,0,1,13.748-22.2c5.311-7.763,11.09-15.507,17.178-23.018a360.7,360.7,0,0,1,24.123-26.9,313.926,313.926,0,0,1,69.332-53.2A269.448,269.448,0,0,1,167.494,9.251,256.768,256.768,0,0,1,219.985-2.483a2.5,2.5,0,0,1,2.771,2.2,2.5,2.5,0,0,1-2.2,2.771C144.847,11.25,89.55,52.747,56.494,86.015A357.928,357.928,0,0,0,15.742,135.22,239.224,239.224,0,0,0,2.217,157.033,2.5,2.5,0,0,1,0,158.379Z" transform="translate(222.773 158.379) rotate(180)" fill="#71867f"/></svg>