<svg xmlns="http://www.w3.org/2000/svg" width="225.273" height="160.879" viewBox="0 0 225.273 160.879"><path d="M1802,2080.273a2.5,2.5,0,0,1-2.216-3.654,238.537,238.537,0,0,1,13.748-22.2c5.311-7.762,11.09-15.507,17.178-23.017a360.727,360.727,0,0,1,24.123-26.9,313.93,313.93,0,0,1,69.332-53.2,269.45,269.45,0,0,1,45.331-20.156,256.777,256.777,0,0,1,52.491-11.735,2.5,2.5,0,1,1,.575,4.967c-75.713,8.767-131.01,50.264-164.066,83.531a357.916,357.916,0,0,0-40.751,49.205,239.153,239.153,0,0,0-13.525,21.813A2.5,2.5,0,0,1,1802,2080.273Z" transform="translate(-1799.5 -1919.393)" fill="#d1efb5"/></svg>