<svg xmlns="http://www.w3.org/2000/svg" width="22.561" height="18.324" viewBox="0 0 22.561 18.324">
  <path id="Icon_awesome-twitter" data-name="Icon awesome-twitter" d="M20.242,7.947c.014.2.014.4.014.6A13.066,13.066,0,0,1,7.1,21.7,13.067,13.067,0,0,1,0,19.629a9.565,9.565,0,0,0,1.117.057,9.26,9.26,0,0,0,5.741-1.976A4.632,4.632,0,0,1,2.534,14.5a5.831,5.831,0,0,0,.873.072,4.89,4.89,0,0,0,1.217-.157A4.625,4.625,0,0,1,.916,9.88V9.823a4.657,4.657,0,0,0,2.09.587A4.631,4.631,0,0,1,1.575,4.225a13.143,13.143,0,0,0,9.534,4.839A5.22,5.22,0,0,1,10.994,8a4.628,4.628,0,0,1,8-3.164,9.1,9.1,0,0,0,2.935-1.117A4.611,4.611,0,0,1,19.9,6.273a9.27,9.27,0,0,0,2.663-.716,9.94,9.94,0,0,1-2.319,2.391Z" transform="translate(0 -3.381)" fill="#fff"/>
</svg>
